<svg width="251" height="37" viewBox="0 0 251 37" fill="none" xmlns="http://www.w3.org/2000/svg">
<path d="M4.77184 20.6383L4.77184 11.87C4.77184 9.23458 2.6354 7.09814 -2.67029e-05 7.09814L-2.72947e-05 20.6383C-2.74449e-05 24.0741 1.74966 26.8218 2.6245 27.7663C4.72412 30.2238 7.90337 31.1662 9.15599 31.1662L19.6243 31.1662L19.6243 7.09814L14.9121 7.09814L14.9121 26.8716L10.1104 26.8716C8.1539 26.8477 7.21809 26.2132 6.0841 24.8733C4.96554 23.5517 4.77184 21.712 4.77184 20.6383Z" fill="#569DB8"/>
<path d="M58.4552 17.6261L58.4552 26.3944C58.4552 29.0298 60.5916 31.1663 63.2271 31.1663L63.2271 17.6261C63.2271 14.1904 61.4774 11.4426 60.6026 10.4981C58.5029 8.04062 55.3237 7.09817 54.0711 7.09817L43.6028 7.09817L43.6028 31.1663L48.315 31.1663L48.315 11.3928L53.1167 11.3928C55.0732 11.4167 56.009 12.0512 57.1429 13.3911C58.2615 14.7127 58.4552 16.5524 58.4552 17.6261Z" fill="#569DB8"/>
<path d="M24.396 7.09814H29.2275V31.2557C29.2275 33.9241 27.0644 36.0872 24.396 36.0872V7.09814Z" fill="#569DB8"/>
<path d="M33.9995 4.95093L38.831 4.95093L38.831 4.83163C38.831 2.16326 36.6679 0.000118499 33.9995 0.000118732L33.9995 4.95093Z" fill="#0EF5FF"/>
<rect width="3.63855" height="3.75784" rx="1.81927" transform="matrix(1 -8.74228e-08 -8.74228e-08 -1 67.999 31.1365)" fill="#0EF5FF"/>
<path d="M33.9995 7.09814H38.831V31.1364H33.9995V7.09814Z" fill="#569DB8"/>
<path d="M80.2765 31.1364C78.1408 31.1364 76.4094 29.4051 76.4094 27.2694H89.1755C90.3874 27.2694 90.9934 26.77 90.9934 25.7713V23.1237C90.9934 22.2411 90.5251 21.7185 89.5887 21.5559L81.2019 20.1276C78.0069 19.5934 76.4094 17.7818 76.4094 14.6928V12.7768C76.4094 8.99101 78.6542 7.09814 83.1437 7.09814H91.3404C93.4761 7.09814 95.2074 8.82947 95.2074 10.9652H83.2676C82.0557 10.9652 81.4498 11.4645 81.4498 12.4632V14.7974C81.4498 15.6799 81.918 16.2025 82.8545 16.3651L91.2413 17.7586C94.4362 18.316 96.0337 20.1276 96.0337 23.1933V25.4578C96.0337 29.2435 93.789 31.1364 89.2995 31.1364H80.2765Z" fill="#569DB8"/>
<path d="M235.243 31.1364C233.107 31.1364 231.376 29.4051 231.376 27.2694H244.142C245.354 27.2694 245.96 26.77 245.96 25.7713V23.1237C245.96 22.2411 245.491 21.7185 244.555 21.5559L236.168 20.1276C232.973 19.5934 231.376 17.7818 231.376 14.6928V12.7768C231.376 8.99101 233.62 7.09814 238.11 7.09814H246.307C248.442 7.09814 250.174 8.82947 250.174 10.9652H238.234C237.022 10.9652 236.416 11.4645 236.416 12.4632V14.7974C236.416 15.6799 236.884 16.2025 237.821 16.3651L246.208 17.7586C249.403 18.316 251 20.1276 251 23.1933V25.4578C251 29.2435 248.755 31.1364 244.266 31.1364H235.243Z" fill="#569DB8"/>
<path d="M99.553 31.1364V7.09814H119.177C119.177 9.23384 117.446 10.9652 115.31 10.9652H104.713V16.7483H117.908V20.6153H104.713V27.2694H119.177V31.1364H99.553Z" fill="#569DB8"/>
<path d="M208.173 31.1364V7.09814H227.797C227.797 9.23384 226.066 10.9652 223.93 10.9652H213.332V16.7483H226.528V20.6153H213.332V27.2694H227.797V31.1364H208.173Z" fill="#569DB8"/>
<path d="M122.756 31.196V7.15771H135.891C140.191 7.15771 142.34 9.05058 142.34 12.8363V16.773C142.34 19.6994 141.022 21.4762 138.384 22.1032L143.693 31.196H138.424L133.359 22.4168H127.583V26.3692C127.583 29.0349 125.422 31.196 122.756 31.196ZM127.583 18.5498H135.773C136.933 18.5498 137.514 18.0388 137.514 17.0169V12.5228C137.514 11.5241 136.933 11.0247 135.773 11.0247H127.583V18.5498Z" fill="#569DB8"/>
<path d="M146.349 7.93426L146.079 7.09814H147.014H151.417L158.521 27.2694H159.31L166.414 7.09814H171.777L171.482 7.93426L163.007 31.1364H154.782L146.349 7.93426Z" fill="#569DB8"/>
<path d="M176.559 4.95093L181.39 4.95093L181.39 4.83163C181.39 2.16326 179.227 0.000118499 176.559 0.000118732L176.559 4.95093Z" fill="#0EF5FF"/>
<path d="M176.559 31.1364V7.09814H181.39V31.1364H176.559Z" fill="#569DB8"/>
<path d="M184.969 25.4578V12.7768C184.969 8.99101 187.128 7.09814 191.445 7.09814H204.594V10.9652H191.564C190.399 10.9652 189.816 11.4645 189.816 12.4632V25.7713C189.816 26.77 190.399 27.2694 191.564 27.2694H200.727C202.862 27.2694 204.594 29.0007 204.594 31.1364H191.445C187.128 31.1364 184.969 29.2435 184.969 25.4578Z" fill="#569DB8"/>
</svg>
