<svg width="252" height="37" viewBox="0 0 252 37" fill="none" xmlns="http://www.w3.org/2000/svg">
<path d="M4.79079 20.6383L4.79079 11.889C4.79079 9.24309 2.64584 7.09814 -8.58307e-05 7.09814L-8.64249e-05 20.6383C-8.65757e-05 24.0741 1.75657 26.8218 2.6349 27.7663C4.74288 30.2238 7.9348 31.1662 9.19241 31.1662L19.7024 31.1662L19.7024 7.09814L14.9714 7.09814L14.9714 26.8716L10.1506 26.8716C8.18632 26.8477 7.24679 26.2132 6.10828 24.8733C4.98527 23.5517 4.79079 21.712 4.79079 20.6383Z" fill="white"/>
<path d="M58.6882 17.6263L58.6882 26.3756C58.6882 29.0216 60.8332 31.1665 63.4791 31.1665L63.4791 17.6263C63.4791 14.1906 61.7224 11.4428 60.8441 10.4984C58.7361 8.04086 55.5442 7.09842 54.2866 7.09842L43.7766 7.09842L43.7766 31.1665L48.5076 31.1665L48.5076 11.3931L53.3284 11.3931C55.2927 11.417 56.2322 12.0514 57.3707 13.3913C58.4937 14.713 58.6882 16.5527 58.6882 17.6263Z" fill="white"/>
<path d="M24.4932 7.09814H29.3439V31.2365C29.3439 33.9155 27.1722 36.0872 24.4932 36.0872V7.09814Z" fill="white"/>
<path d="M34.135 4.95068L38.9858 4.95068L38.9858 4.85064C38.9858 2.17164 36.814 -0.000125641 34.135 -0.000125408L34.135 4.95068Z" fill="#0EF5FF"/>
<rect width="3.65304" height="3.75784" rx="1.82652" transform="matrix(1 -8.70759e-08 -8.77711e-08 -1 68.27 31.1362)" fill="#0EF5FF"/>
<path d="M34.135 7.09814H38.9858V31.1364H34.135V7.09814Z" fill="white"/>
<path d="M80.5809 31.1364C78.4452 31.1364 76.7139 29.4051 76.7139 27.2694H89.5308C90.7476 27.2694 91.3559 26.77 91.3559 25.7713V23.1237C91.3559 22.2411 90.8858 21.7185 89.9456 21.5559L81.5254 20.1276C78.3177 19.5934 76.7139 17.7818 76.7139 14.6928V12.7768C76.7139 8.99101 78.9676 7.09814 83.4749 7.09814H91.7197C93.8554 7.09814 95.5868 8.82947 95.5868 10.9652H83.5994C82.3826 10.9652 81.7743 11.4645 81.7743 12.4632V14.7974C81.7743 15.6799 82.2444 16.2025 83.1846 16.3651L91.6048 17.7586C94.8125 18.316 96.4163 20.1276 96.4163 23.1933V25.4578C96.4163 29.2435 94.1627 31.1364 89.6553 31.1364H80.5809Z" fill="white"/>
<path d="M236.165 31.1364C234.029 31.1364 232.298 29.4051 232.298 27.2694H245.115C246.331 27.2694 246.94 26.77 246.94 25.7713V23.1237C246.94 22.2411 246.47 21.7185 245.529 21.5559L237.109 20.1276C233.901 19.5934 232.298 17.7818 232.298 14.6928V12.7768C232.298 8.99101 234.551 7.09814 239.059 7.09814H247.303C249.439 7.09814 251.171 8.82947 251.171 10.9652H239.183C237.966 10.9652 237.358 11.4645 237.358 12.4632V14.7974C237.358 15.6799 237.828 16.2025 238.768 16.3651L247.189 17.7586C250.396 18.316 252 20.1276 252 23.1933V25.4578C252 29.2435 249.746 31.1364 245.239 31.1364H236.165Z" fill="white"/>
<path d="M99.9497 31.1364V7.09814H119.652C119.652 9.23384 117.921 10.9652 115.785 10.9652H105.13V16.7483H118.378V20.6153H105.13V27.2694H119.652V31.1364H99.9497Z" fill="white"/>
<path d="M209.002 31.1364V7.09814H228.704C228.704 9.23384 226.973 10.9652 224.837 10.9652H214.182V16.7483H227.431V20.6153H214.182V27.2694H228.704V31.1364H209.002Z" fill="white"/>
<path d="M123.245 31.196V7.15771H136.433C140.749 7.15771 142.907 9.05058 142.907 12.8363V16.773C142.907 19.6994 141.583 21.4762 138.935 22.1032L144.265 31.196H138.975L133.891 22.4168H128.091V26.3499C128.091 29.0263 125.922 31.196 123.245 31.196ZM128.091 18.5498H136.314C137.479 18.5498 138.061 18.0388 138.061 17.0169V12.5228C138.061 11.5241 137.479 11.0247 136.314 11.0247H128.091V18.5498Z" fill="white"/>
<path d="M146.932 7.93426L146.661 7.09814H147.599H152.02L159.152 27.2694H159.945L167.077 7.09814H172.462L172.165 7.93426L163.657 31.1364H155.399L146.932 7.93426Z" fill="white"/>
<path d="M177.262 4.95068L182.113 4.95068L182.113 4.85064C182.113 2.17164 179.941 -0.000125642 177.262 -0.000125408L177.262 4.95068Z" fill="#0EF5FF"/>
<path d="M177.262 31.1364V7.09814H182.113V31.1364H177.262Z" fill="white"/>
<path d="M185.706 25.4578V12.7768C185.706 8.99101 187.873 7.09814 192.207 7.09814H205.409V10.9652H192.327C191.157 10.9652 190.572 11.4645 190.572 12.4632V25.7713C190.572 26.77 191.157 27.2694 192.327 27.2694H201.542C203.677 27.2694 205.409 29.0007 205.409 31.1364H192.207C187.873 31.1364 185.706 29.2435 185.706 25.4578Z" fill="white"/>
</svg>
