<svg width="48" height="48" viewBox="0 0 48 48" fill="none" xmlns="http://www.w3.org/2000/svg">
<path d="M19 20.875C18.5856 20.875 18.1882 21.0396 17.8951 21.3326C17.6021 21.6257 17.4375 22.0231 17.4375 22.4375C17.4375 22.8519 17.6021 23.2493 17.8951 23.5424C18.1882 23.8354 18.5856 24 19 24C19.4144 24 19.8118 23.8354 20.1049 23.5424C20.3979 23.2493 20.5625 22.8519 20.5625 22.4375C20.5625 22.0231 20.3979 21.6257 20.1049 21.3326C19.8118 21.0396 19.4144 20.875 19 20.875ZM24 20.875C23.5856 20.875 23.1882 21.0396 22.8951 21.3326C22.6021 21.6257 22.4375 22.0231 22.4375 22.4375C22.4375 22.8519 22.6021 23.2493 22.8951 23.5424C23.1882 23.8354 23.5856 24 24 24C24.4144 24 24.8118 23.8354 25.1049 23.5424C25.3979 23.2493 25.5625 22.8519 25.5625 22.4375C25.5625 22.0231 25.3979 21.6257 25.1049 21.3326C24.8118 21.0396 24.4144 20.875 24 20.875ZM27.4375 22.4375C27.4375 22.0231 27.6021 21.6257 27.8951 21.3326C28.1882 21.0396 28.5856 20.875 29 20.875C29.4144 20.875 29.8118 21.0396 30.1049 21.3326C30.3979 21.6257 30.5625 22.0231 30.5625 22.4375C30.5625 22.8519 30.3979 23.2493 30.1049 23.5424C29.8118 23.8354 29.4144 24 29 24C28.5856 24 28.1882 23.8354 27.8951 23.5424C27.6021 23.2493 27.4375 22.8519 27.4375 22.4375Z" fill="#569DB8"/>
<path fill-rule="evenodd" clip-rule="evenodd" d="M29.125 14.7411C25.7576 14.4539 22.3726 14.4372 19.0025 14.6911L18.7613 14.7099C17.2118 14.8268 15.7636 15.5248 14.7069 16.6641C13.6502 17.8033 13.0628 19.2997 13.0625 20.8536V31.4999C13.0626 31.662 13.1048 31.8212 13.1849 31.9621C13.2649 32.1031 13.3801 32.2208 13.5193 32.3039C13.6584 32.387 13.8167 32.4326 13.9787 32.4363C14.1408 32.44 14.301 32.4016 14.4438 32.3249L19.3313 29.6986C19.5591 29.5762 19.8138 29.5122 20.0725 29.5124H31.2925C32.7075 29.5124 33.92 28.4999 34.1737 27.1086C34.6887 24.2874 34.7288 21.3999 34.2938 18.5649L34.1662 17.7286C34.0528 16.9897 33.6942 16.3103 33.1481 15.7997C32.6019 15.2891 31.8999 14.9771 31.155 14.9136L29.125 14.7411ZM19.145 16.5611C22.4152 16.3144 25.6999 16.3303 28.9675 16.6086L30.9975 16.7824C31.6675 16.8399 32.2125 17.3486 32.3137 18.0136L32.4425 18.8486C32.8451 21.4778 32.8071 24.1557 32.33 26.7724C32.2858 27.0151 32.1579 27.2345 31.9686 27.3926C31.7792 27.5507 31.5404 27.6373 31.2937 27.6374H20.0725C19.5045 27.6375 18.9453 27.7784 18.445 28.0474L14.9375 29.9324V20.8524C14.9376 19.7714 15.346 18.7303 16.081 17.9375C16.816 17.1448 17.8233 16.659 18.9012 16.5774L19.1437 16.5599L19.145 16.5611Z" fill="#569DB8"/>
<rect x="1" y="1" width="46" height="46" rx="23" stroke="#569DB8" stroke-width="2"/>
</svg>
