<svg width="24" height="24" viewBox="0 0 24 24" fill="none" xmlns="http://www.w3.org/2000/svg">
<path d="M12 23C5.91765 23 1 18.0824 1 12C1 5.91765 5.91765 1 12 1C18.0824 1 23 5.91765 23 12C23 18.0824 18.0824 23 12 23ZM12 2.29412C6.62941 2.29412 2.29412 6.62941 2.29412 12C2.29412 17.3706 6.62941 21.7059 12 21.7059C17.3706 21.7059 21.7059 17.3706 21.7059 12C21.7059 6.62941 17.3706 2.29412 12 2.29412Z" fill="white"/>
<path d="M6 11H18V13H6V11Z" fill="white"/>
<path d="M11 6H13V18H11V6Z" fill="white"/>
</svg>
